# xmcd CD database file
#
# Track frame offsets:
#	150
#	19205
#	37780
#	55515
#	75370
#	94530
#	113088
#	130775
#	149385
#	169085
#	189033
#	208605
#	234175
#
# Disc length: 3428 seconds
#
# Revision: 2
# Processed by: cddbd v1.5.1PL0 Copyright (c) Steve Scherf et al.
# Submitted via: CDex 1.50
#
DISCID=900d620d
DTITLE=雅夢 - ファイナル〜彩歴
DYEAR=1992
DGENRE=JPop
TTITLE0=愛はかげろう
TTITLE1=悲しくて
TTITLE2=浮雲
TTITLE3=秋時雨
TTITLE4=追いかけて
TTITLE5=霧雨の旅人
TTITLE6=夕映えよ心の鳩を抱け
TTITLE7=哀しみのブラマンジェ
TTITLE8=サヨナラ・君
TTITLE9=辛口のゲーム
TTITLE10=壊れた夜
TTITLE11=帰らぬ河のほとりで
TTITLE12=ファイナル
EXTD=YEAR: 1992
EXTT0=
EXTT1=
EXTT2=
EXTT3=
EXTT4=
EXTT5=
EXTT6=
EXTT7=
EXTT8=
EXTT9=
EXTT10=
EXTT11=
EXTT12=
PLAYORDER=
